# xmcd CD database file
#
# Track frame offsets:
#	150
#	19855
#	41147
#	62185
#	78687
#	99647
#	118290
#	137552
#	155650
#	177455
#	202660
#	221132
#	246845
#	266032
#	295750
#
# Disc length: 4440 seconds
#
# Revision: 1
# Processed by: cddbd v1.5.1PL0 Copyright (c) Steve Scherf et al.
# Submitted via: CDex 1.51
#
DISCID=e811560f
DTITLE=V6 - seVen(初回版)
DYEAR=2002
DGENRE=Dance
TTITLE0=BLOW UP THE DARK
TTITLE1=A・SA・YA・KE
TTITLE2=出せない手紙
TTITLE3=HAVE A SUPER GOOD TIME
TTITLE4=こんなんどーでしょ!?〜BRAND NEW MY SOUL〜
TTITLE5=GOOD ENOUGH
TTITLE6=one(Japanese version)
TTITLE7=B.G.B(booin'groovin'boogie)
TTITLE8=MAGMA
TTITLE9=days-tears of the world-
TTITLE10=Feel your breeze
TTITLE11=SHINY DAY
TTITLE12=one(English version)
TTITLE13=Feel your breeze(G・S・N version)
TTITLE14=CCCD
EXTD=YEAR: 2002
EXTT0=
EXTT1=
EXTT2=
EXTT3=
EXTT4=
EXTT5=
EXTT6=
EXTT7=
EXTT8=
EXTT9=
EXTT10=
EXTT11=
EXTT12=
EXTT13=
EXTT14=
PLAYORDER=
